<?xml version="1.0" encoding="UTF-8"?><svg id="Logo" xmlns="http://www.w3.org/2000/svg" viewBox="0 0 155.52 51.62"><defs><style>.cls-1 {
        fill: #68ae34;
      }

      .cls-1, .cls-2, .cls-3, .cls-4 {
        stroke-width: 0px;
      }

      .cls-2, .cls-4 {
        fill: #000;
      }

      .cls-3 {
        fill: #fff;
      }

      .cls-4 {
        fill-rule: evenodd;
      }</style></defs><path class="cls-4" d="M87.03,20.33c0-2.66,2.16-4.82,4.82-4.82h58.85c1.45,0,2.73.65,3.61,1.66l-2.86-13.28c-.48-2.59-2.97-4.29-5.56-3.81l-58.82,11.06s0,0,0,0c-2.59.49-4.29,2.98-3.8,5.57l3.75,17.41v-13.79Z"/><rect class="cls-1" x="87.03" y="15.51" width="68.49" height="35.86" rx="4.82" ry="4.82"/><path class="cls-1" d="M4.94,35.1c.07,1.35.49,2.42,1.23,3.21.75.79,1.73,1.19,2.94,1.19.75.02,1.49-.17,2.15-.52.58-.3,1.01-.83,1.2-1.46h5.09c-.58,1.83-1.6,3.24-3.04,4.23s-3.17,1.48-5.16,1.48C3.11,43.22,0,40,0,33.55c-.02-1.27.19-2.52.61-3.72.38-1.07.98-2.04,1.77-2.85.79-.81,1.76-1.43,2.82-1.82,1.11-.42,2.39-.63,3.83-.63,2.89,0,5.07.88,6.55,2.64s2.22,4.41,2.22,7.94H4.94ZM12.72,32.14c-.01-.59-.14-1.17-.36-1.72-.2-.47-.49-.89-.85-1.23-.35-.32-.76-.57-1.21-.72-.45-.16-.92-.24-1.4-.24-.96-.01-1.88.36-2.57,1.03-.72.69-1.13,1.64-1.23,2.87h7.63Z"/><path class="cls-2" d="M36.15,36.33c-.11.99-.43,1.95-.93,2.82-.49.83-1.12,1.57-1.88,2.16-.78.61-1.66,1.09-2.6,1.41-1.02.35-2.09.52-3.17.51-1.18.01-2.36-.19-3.47-.6-1.03-.38-1.96-1-2.72-1.81-.79-.86-1.39-1.88-1.77-3-.42-1.19-.63-2.58-.63-4.17s.21-2.96.63-4.12c.36-1.07.97-2.04,1.77-2.83.78-.75,1.72-1.31,2.75-1.64,1.16-.38,2.37-.56,3.59-.55,1.12-.01,2.25.15,3.32.47.95.29,1.84.75,2.62,1.37.74.59,1.34,1.34,1.77,2.18.44.88.7,1.84.76,2.82h-4.97c-.13-.91-.51-1.63-1.16-2.15-.64-.52-1.44-.78-2.37-.78-.5,0-1.01.08-1.48.25-.47.18-.88.47-1.2.85-.38.47-.66,1.01-.82,1.59-.22.79-.32,1.61-.3,2.44,0,1.95.37,3.39,1.1,4.33s1.58,1.41,2.54,1.41c.88.02,1.75-.24,2.47-.76.68-.51,1.07-1.24,1.18-2.2h4.98Z"/><path class="cls-2" d="M49.09,42.76c-.16-.51-.27-1.05-.3-1.59-.65.67-1.44,1.19-2.32,1.5-1.07.39-2.2.57-3.34.55-2.15,0-3.73-.45-4.73-1.35-1-.9-1.5-2.08-1.5-3.52,0-1.28.22-2.29.65-3.05.42-.75,1.03-1.37,1.78-1.79.85-.46,1.76-.79,2.72-.96,1.05-.2,2.2-.39,3.44-.56,1.24-.17,2.08-.39,2.52-.67.43-.27.64-.72.65-1.35,0-.58-.28-1.03-.85-1.35-.57-.33-1.34-.49-2.3-.49-1.14,0-1.96.24-2.45.72-.51.52-.84,1.19-.93,1.91h-4.59c.02-.86.18-1.72.47-2.53.29-.77.78-1.45,1.4-1.98.65-.55,1.49-.98,2.52-1.28s2.3-.45,3.8-.45c1.47,0,2.71.16,3.74.47,1.03.31,1.85.76,2.47,1.35.63.61,1.09,1.36,1.35,2.2.29.97.43,1.97.42,2.98v11.23h-4.59ZM48.75,34.06c-.32.28-.69.47-1.1.58-.69.19-1.38.35-2.09.47-1.42.27-2.39.6-2.92,1.01-.53.41-.8,1-.8,1.77,0,1.33.8,1.99,2.39,1.99.6,0,1.2-.1,1.77-.31.52-.19.99-.47,1.4-.83.39-.35.71-.76.95-1.23.24-.46.36-.98.36-1.5l.04-1.95Z"/><path class="cls-2" d="M55.67,42.76v-17.77h4.63v2.13c.34-.54.77-1.01,1.27-1.41.42-.32.88-.58,1.37-.78.46-.18.94-.29,1.42-.34.48-.05.97-.07,1.48-.07h.65v4.8c-.45-.07-.91-.11-1.37-.11-3.01,0-4.51,1.43-4.51,4.3v9.24h-4.94Z"/><path class="cls-2" d="M78.22,31.05h4.59v5.06c0,.91-.14,1.82-.44,2.69-.29.85-.75,1.62-1.37,2.27-.66.69-1.47,1.22-2.36,1.57-.95.38-2.08.57-3.39.57s-2.53-.19-3.49-.58c-.89-.34-1.7-.87-2.37-1.55-.62-.64-1.08-1.42-1.35-2.27-.28-.89-.42-1.81-.42-2.75v-15.89h4.86v4.8h10.33v3.32h-10.33v7.29c0,1.13.22,2.01.66,2.62s1.17.92,2.19.92c.99,0,1.72-.3,2.19-.9s.71-1.46.7-2.56v-4.62Z"/><path class="cls-3" d="M95.2,20.27h8.87c1.16,0,2.32.1,3.46.33.98.18,1.91.57,2.72,1.14.75.55,1.33,1.31,1.65,2.19.36.91.44,2.06.24,3.45-.2,1.37-.6,2.51-1.18,3.44-.55.89-1.29,1.65-2.17,2.22-.91.57-1.92.97-2.97,1.17-1.17.24-2.36.35-3.56.35h-3.85l-1.28,9.12h-5.26l3.34-23.42ZM99.04,30.19h3.51c.46,0,.93-.05,1.38-.14.44-.08.86-.23,1.25-.45.39-.21.72-.51.98-.86.29-.4.46-.88.51-1.37.09-.59.02-1.07-.22-1.44-.24-.37-.58-.66-.98-.84-.45-.21-.93-.33-1.42-.38-.51-.05-1.02-.08-1.53-.08h-2.7l-.78,5.55Z"/><path class="cls-3" d="M121.77,41.66h-.07c-.64.84-1.51,1.48-2.49,1.85-.97.37-2,.56-3.04.56-.73,0-1.46-.1-2.16-.31-.64-.19-1.23-.51-1.74-.94-.48-.42-.85-.95-1.06-1.55-.23-.69-.29-1.43-.17-2.15.2-1.39.74-2.46,1.6-3.22.89-.77,1.93-1.35,3.06-1.69,1.2-.37,2.45-.58,3.71-.64,1.29-.07,2.47-.1,3.52-.1.11-.88-.11-1.58-.67-2.1-.56-.52-1.28-.78-2.16-.78-.81,0-1.61.17-2.34.51-.75.36-1.44.83-2.04,1.4l-2.29-2.71c1.06-.86,2.26-1.52,3.56-1.93,1.29-.43,2.64-.64,4-.64,1.48,0,2.68.18,3.59.55.91.36,1.6.9,2.07,1.6.47.71.75,1.57.82,2.6.07,1.19,0,2.38-.18,3.56l-1.15,8.17h-4.65l.28-2.02ZM121.23,36.64c-.38,0-.86.02-1.43.05-.57.03-1.14.13-1.69.28-.52.14-1.01.38-1.45.69-.41.31-.68.78-.72,1.29-.05.26-.02.54.1.78.12.21.28.4.47.55.22.16.46.27.72.33.27.06.54.1.82.1.5,0,.99-.07,1.47-.2.46-.12.91-.31,1.31-.56.39-.24.73-.55,1-.93.28-.39.45-.85.5-1.32l.14-1.06h-1.24Z"/><path class="cls-3" d="M137.12,46.29c-.45.86-.88,1.62-1.28,2.28-.38.63-.87,1.2-1.43,1.67-.59.47-1.27.82-1.99,1.03-.78.23-1.77.35-2.98.35-1.25,0-2.49-.19-3.68-.6l1.25-4.07c.7.33,1.48.5,2.26.5.48.01.96-.05,1.42-.18.36-.11.69-.29.98-.53.28-.24.52-.53.71-.84.2-.33.43-.72.67-1.16l.51-.93-4.86-16.2h5.46l2.7,10.61h.07l5.13-10.61h5.2l-10.12,18.68Z"/></svg>