<svg viewBox="0 0 12 12" width="150" height="150" xmlns="http://www.w3.org/2000/svg">
  <g transform="translate(0,-15.75)">
    <path d="M3.07996 22.5424C3.12485 23.4115 3.38521 24.0958 3.85208 24.6043C4.31894 25.1129 4.92946 25.3718 5.68362 25.3718C6.15049 25.381 6.61735 25.27 7.02137 25.0389C7.38049 24.8447 7.65882 24.5026 7.76655 24.0958H10.9358C10.5767 25.27 9.93927 26.1762 9.04145 26.8142C8.14364 27.4522 7.06626 27.7665 5.82727 27.7665C1.93973 27.7665 0.000448908 25.6954 0.000448908 21.553C-0.00852925 20.7394 0.117165 19.9349 0.377531 19.1675C0.610963 18.4833 0.988046 17.8545 1.48184 17.3367C1.97564 16.8189 2.57718 16.4121 3.24156 16.1625C3.93288 15.8943 4.73194 15.7556 5.62975 15.7556C7.42538 15.7556 8.79006 16.3196 9.71481 17.4477C10.6396 18.5757 11.0974 20.277 11.0974 22.5516H3.07996V22.5424ZM7.93714 20.6469C7.93714 20.2678 7.85634 19.898 7.71268 19.5466C7.58699 19.2507 7.40743 18.9733 7.18297 18.7514C6.9675 18.548 6.70713 18.3816 6.42881 18.2891C6.15049 18.1874 5.85421 18.1412 5.55793 18.1412C4.95639 18.1412 4.38179 18.3723 3.95982 18.8069C3.51091 19.2507 3.25054 19.861 3.18769 20.6561H7.94612L7.93714 20.6469Z" fill="#75C33D"/>
  </g>
</svg>